<?xml version="1.0" encoding="UTF-8" standalone="no"?>
<svg
   xmlns:dc="http://purl.org/dc/elements/1.1/"
   xmlns:cc="http://creativecommons.org/ns#"
   xmlns:rdf="http://www.w3.org/1999/02/22-rdf-syntax-ns#"
   xmlns:svg="http://www.w3.org/2000/svg"
   xmlns="http://www.w3.org/2000/svg"
   viewBox="0 0 1333.3333 1333.3333"
   height="1333.3333"
   width="1333.3333"
   xml:space="preserve"
   id="svg2"
   version="1.1"><metadata
     id="metadata8"><rdf:RDF><cc:Work
         rdf:about=""><dc:format>image/svg+xml</dc:format><dc:type
           rdf:resource="http://purl.org/dc/dcmitype/StillImage" /></cc:Work></rdf:RDF></metadata><defs
     id="defs6"><clipPath
       id="clipPath26"
       clipPathUnits="userSpaceOnUse"><path
         id="path24"
         d="M 0,1000 H 1000 V 0 H 0 Z" /></clipPath></defs><g
     transform="matrix(1.3333333,0,0,-1.3333333,0,1333.3333)"
     id="g10"><g
       transform="translate(499.9814,989)"
       id="g12"><path
         id="path14"
         style="fill:#412846;fill-opacity:1;fill-rule:evenodd;stroke:none"
         d="M 0,0 -455.981,-158.62 -390.562,-764.863 0,-978.147 Z" /></g><g
       transform="translate(499.9814,989)"
       id="g16"><path
         id="path18"
         style="fill:#4b314f;fill-opacity:1;fill-rule:evenodd;stroke:none"
         d="M 0,0 455.981,-158.62 390.562,-764.863 0,-978.147 Z" /></g><g
       id="g20"><g
         clip-path="url(#clipPath26)"
         id="g22"><g
           transform="translate(567,665)"
           id="g28"><path
             id="path30"
             style="fill:#ba2bd2;fill-opacity:1;fill-rule:evenodd;stroke:none"
             d="M 0,0 C 7.18,0 13,5.82 13,13 13,20.18 7.18,26 0,26 -7.18,26 -13,20.18 -13,13 -13,5.82 -7.18,0 0,0 m 160.748,-10.712 -0.082,0.259 c 20.865,-23.223 31.583,-50.798 32.152,-82.726 0.57,-31.927 -10.148,-65.607 -32.399,-100.934 16.63,12.926 35.835,40.832 57.552,83.392 9.382,-86.253 -25.475,-151.768 -104.894,-196.637 25.357,2.338 59.022,19.032 100.776,50.139 -44.558,-107.273 -126.485,-163.873 -245.782,-169.797 -115.292,0.032 -189.981,69.316 -189.922,69.272 -47.4,36.89 -80.013,83.388 -97.728,139.283 -28.35,30.959 -28.632,34.279 -31.557,46.65 -2.924,12.372 1.847,15.828 10.152,27.933 5.537,8.07 6.841,19.68 3.997,34.62 -7.058,9.788 -11.122,25.117 -12.193,45.988 0,10.086 6.731,20.728 20.194,31.925 13.462,11.198 21.721,19.809 24.714,25.738 2.282,3.233 3.164,17.246 2.645,42.041 -0.139,24.352 13.382,37.602 40.565,39.748 40.773,3.218 63.768,33.883 76.578,47.829 8.541,9.297 21.179,13.816 37.121,13.903 22.443,1.052 42.863,-7.551 60.454,-25.305 43.815,2.266 88.696,-9.55 134.172,-35.148 64.624,-38.389 99.892,-79.961 105.805,-124.508 -6.926,-58.625 -85.679,-57.093 -235.91,4.612 -78.617,-22.269 -117.267,-70.525 -115.984,-144.768 -0.053,-68.129 32.92,-117.635 98.694,-148.468 -32.058,31.474 -45.711,57.927 -41.114,79.835 66.68,-78.967 142.633,-108.481 227.727,-88.551 -37.516,-1.31 -67.233,10.762 -89.597,36.397 57.516,1.397 111.814,28.097 162.944,80.372 -29.516,-23.487 -60.4,-32.381 -93.101,-26.787 88.568,69.632 119.908,150.862 94.021,243.693" /></g></g></g></g></svg>