<svg width="104" height="30" viewBox="0 0 104 30" fill="none" xmlns="http://www.w3.org/2000/svg">
<path d="M24.5269 16.6562L23.5901 22.5486L29.163 24.686L29.1621 19.3318L24.5269 16.6562Z" fill="#A299FF"/>
<path d="M0.24707 22.007V7.98828L4.88454 9.4588V19.3295L12.3878 23.6613L12.9483 25.7985L12.3878 29.0161L0.24707 22.007Z" fill="#7366FF"/>
<path d="M12.3889 6.3352L4.88454 10.6662L0.24707 7.98899L12.3861 0.980469L24.5268 7.98899L21.9653 10.0298L19.8921 10.667L12.3889 6.3352Z" fill="#7366FF"/>
<path d="M29.1643 24.6829L24.5268 27.362L19.8921 24.6829V19.3301L29.1643 24.6829Z" fill="#5219FF"/>
<path d="M12.389 9.6582L12.3862 15.0115L17.0251 17.6879L17.0242 12.3338L12.389 9.6582Z" fill="#A299FF"/>
<path d="M12.3861 15.0117L7.75024 17.6881L12.3869 20.3659L17.0249 17.6881L12.3861 15.0117Z" fill="#5219FF"/>
<path d="M12.3888 9.6582L7.7508 12.336L7.75024 17.6879L12.386 15.0115L12.3888 9.6582Z" fill="#7366FF"/>
<path d="M24.5268 7.98828V16.6547L19.8921 19.3298V10.6663L24.5268 7.98828Z" fill="url(#paint0_linear)"/>
<path d="M24.5281 16.6523L12.3877 23.6617V29.0164L24.5267 22.0065L24.5281 16.6523Z" fill="url(#paint1_linear)"/>
<path d="M53.3528 21.1178C52.5598 20.3335 52.0186 19.3304 51.7986 18.2369C51.5786 17.1434 51.6898 16.0091 52.1178 14.9791C52.5458 13.9491 53.2713 13.0701 54.2016 12.4546C55.1318 11.8391 56.2244 11.515 57.3398 11.5238C58.0794 11.5159 58.8131 11.6554 59.4981 11.9341C60.1832 12.2128 60.8058 12.6252 61.3298 13.1472C61.8537 13.6692 62.2685 14.2903 62.5498 14.9743C62.8311 15.6583 62.9734 16.3915 62.9683 17.131C62.9592 18.241 62.6236 19.3236 62.0033 20.2441C61.383 21.1646 60.5056 21.8821 59.4802 22.3072C58.4549 22.7324 57.3271 22.8463 56.2375 22.6348C55.1479 22.4232 54.1446 21.8957 53.3528 21.1178V21.1178ZM57.3398 20.4997C57.7789 20.5098 58.2154 20.4299 58.6224 20.2649C59.0294 20.0999 59.3983 19.8533 59.7063 19.5403C60.3224 18.8894 60.6657 18.0272 60.6657 17.131C60.6657 16.2348 60.3224 15.3726 59.7063 14.7218C59.0722 14.1065 58.2233 13.7623 57.3397 13.7623C56.4561 13.7623 55.6073 14.1065 54.9731 14.7218C54.357 15.3726 54.0137 16.2348 54.0137 17.131C54.0137 18.0272 54.357 18.8894 54.9731 19.5403C55.2812 19.8533 55.6501 20.1 56.0572 20.265C56.4642 20.43 56.9007 20.5099 57.3398 20.4997Z" fill="white"/>
<path d="M71.4727 11.8008H73.9885L69.831 22.461H67.166L63.0085 11.8008H65.5245L68.5093 19.9024L71.4727 11.8008Z" fill="white"/>
<path d="M76.4489 18.1113C76.79 19.7316 78.0905 20.6271 79.8601 20.6271C81.0753 20.6271 81.9922 20.1793 82.6103 19.3052L84.5079 20.4139C83.4632 21.9702 81.9068 22.7378 79.8387 22.7378C78.1117 22.7378 76.7047 22.2048 75.6387 21.1601C75.1113 20.6331 74.6973 20.0037 74.4223 19.3107C74.1473 18.6177 74.0171 17.8758 74.0396 17.1305C74.0203 16.3939 74.1501 15.661 74.4212 14.9759C74.6923 14.2907 75.0992 13.6675 75.6173 13.1436C76.6621 12.0562 78.0266 11.5233 79.6683 11.5233C80.3884 11.504 81.1043 11.6408 81.7667 11.9242C82.429 12.2075 83.0223 12.6308 83.5058 13.1649C84.5073 14.248 85.0499 15.6771 85.0195 17.1519C85.0158 17.4734 84.9873 17.7942 84.9342 18.1113L76.4489 18.1113ZM82.6956 16.235C82.3759 14.508 81.1607 13.6126 79.6469 13.6126C77.9413 13.6126 76.7472 14.6148 76.4275 16.235H82.6956Z" fill="white"/>
<path d="M88.8372 13.5917C89.4127 12.2698 90.5214 11.8008 92.1203 11.8008V14.069C91.2993 14.0324 90.4894 14.2695 89.8178 14.743C89.1569 15.212 88.8372 16.0008 88.8372 17.0883V22.461H86.5344V11.8008H88.8372V13.5917Z" fill="white"/>
<path d="M101.015 11.8008H103.466L99.3729 22.8021C98.3496 25.5523 96.6226 26.8742 94.1707 26.725V24.5717C95.6206 24.657 96.4307 23.9534 97.0064 22.4822L97.113 22.2691L92.593 11.8008H95.109L98.2856 19.5401L101.015 11.8008Z" fill="white"/>
<path d="M50.9541 20.6268L48.8728 19.4252C49.7889 18.1328 50.2711 16.583 50.2499 14.9989C50.2479 13.4684 49.7927 11.9726 48.9417 10.7004C48.0908 9.42822 46.8821 8.43652 45.4682 7.85042C44.0542 7.26431 42.4984 7.11006 40.9969 7.4071C39.4954 7.70415 38.1156 8.4392 37.0313 9.51953C36.2974 10.2278 35.7178 11.0802 35.3289 12.0231C34.94 12.966 34.7502 13.9792 34.7714 14.9989C34.7635 16.0175 34.9583 17.0274 35.3445 17.9699C35.7306 18.9125 36.3004 19.7688 37.0206 20.489C37.7409 21.2093 38.5972 21.779 39.5397 22.1652C40.4823 22.5513 41.4922 22.7462 42.5107 22.7383C43.913 22.7387 45.2897 22.3632 46.4975 21.6509C46.7585 21.5013 47.007 21.3308 47.2405 21.1412L50.9541 23.284L50.9541 20.6268ZM42.5107 20.3504C41.8137 20.3637 41.1212 20.2344 40.476 19.9704C39.8307 19.7064 39.2462 19.3133 38.7583 18.8152C37.7733 17.7889 37.2232 16.4215 37.2232 14.9989C37.2232 13.5764 37.7733 12.2089 38.7583 11.1826C39.7596 10.1989 41.1071 9.64766 42.5107 9.64766C43.9144 9.64766 45.2619 10.1989 46.2631 11.1826C46.7654 11.6806 47.1607 12.276 47.4246 12.9323C47.6886 13.5885 47.8157 14.2918 47.7981 14.9989C47.8122 16.1527 47.452 17.2801 46.7715 18.2119L42.5107 15.7519V18.4114L44.8933 19.7867C44.8039 19.834 44.7493 19.86 44.7493 19.86C44.0472 20.183 43.2836 20.3503 42.5107 20.3504Z" fill="white"/>
<defs>
<linearGradient id="paint0_linear" x1="22.2095" y1="7.98825" x2="22.2095" y2="19.3298" gradientUnits="userSpaceOnUse">
<stop offset="0.25" stop-color="#7366FF"/>
<stop offset="1" stop-color="#5219FF"/>
</linearGradient>
<linearGradient id="paint1_linear" x1="12.3876" y1="22.8345" x2="24.528" y2="22.8345" gradientUnits="userSpaceOnUse">
<stop stop-color="#7366FF"/>
<stop offset="1" stop-color="#A299FF"/>
</linearGradient>
</defs>
</svg>
